<svg width="48" height="40" viewBox="0 0 48 40" fill="none" xmlns="http://www.w3.org/2000/svg">
<path d="M45 9.09956V6.99956C41.4192 3.39517 36.6223 1.25668 31.548 1.00256C30.1423 0.834599 28.7169 1.01956 27.4006 1.54072C26.0844 2.06189 24.9187 2.90284 24.009 3.98756C23.07 2.93777 21.8991 2.12137 20.5893 1.60321C19.2796 1.08504 17.8671 0.879384 16.464 1.00256C11.3855 1.25374 6.58378 3.39245 3 6.99956V9.09956L0 9.99957V39.9996L20.1 35.7996L21 36.9996H27L27.9 35.7996L48 39.9996V9.99957L45 9.09956ZM16.44 28.9296C12.7558 29.0278 9.14078 29.9526 5.862 31.6356L6 8.25956C8.74531 5.66761 12.3346 4.15475 16.107 3.99956C18.409 4.14211 20.6373 4.86562 22.584 6.10256L22.527 29.7096C20.5411 29.1327 18.4771 28.8705 16.41 28.9326L16.44 28.9296ZM42 31.5696C38.7721 29.9251 35.2174 29.0231 31.596 28.9296L31.113 28.9236C29.133 28.9236 27.222 29.2116 25.416 29.7456L25.557 6.03956C27.4518 4.85002 29.6126 4.15004 31.845 4.00256C35.636 4.14721 39.2455 5.66309 42.003 8.26856L41.994 31.5726L42 31.5696Z" fill="white"/>
</svg>
