<svg width="31" height="31" viewBox="0 0 31 31" fill="none" xmlns="http://www.w3.org/2000/svg">
<g clip-path="url(#clip0_4290_5828)">
<path d="M3.07812 13.2598C3.3418 13.0254 3.61523 12.8008 3.89844 12.5859C4.18164 12.3711 4.46484 12.1611 4.74805 11.9561L16.0127 23.2207C15.9248 23.2207 15.8418 23.2256 15.7637 23.2354C15.6855 23.2451 15.5977 23.25 15.5 23.25C15.0508 23.25 14.6064 23.2305 14.167 23.1914C13.7275 23.1523 13.2832 23.0889 12.834 23.001L3.07812 13.2598ZM30.5 15.75C29.25 17.1562 27.8584 18.4111 26.3252 19.5146C24.792 20.6182 23.1367 21.4971 21.3594 22.1514L26.4717 27.2783L25.1533 28.5967L19.3232 22.7666L18.4004 22.957L6.35938 10.916L7.0625 10.5059L0.77832 4.22168L2.09668 2.90332L8.84961 9.65625C9.9043 9.20703 10.9883 8.86035 12.1016 8.61621C13.2148 8.37207 14.3477 8.25 15.5 8.25C16.9648 8.25 18.3906 8.44043 19.7773 8.82129C21.1641 9.20215 22.4922 9.72461 23.7617 10.3887C25.0312 11.0527 26.2324 11.8486 27.3652 12.7764C28.498 13.7041 29.543 14.6953 30.5 15.75ZM15.5 10.125C14.748 10.125 14.0303 10.2666 13.3467 10.5498C12.6631 10.833 12.0527 11.2383 11.5156 11.7656L14.167 14.417C14.3428 14.2412 14.543 14.1094 14.7676 14.0215C14.9922 13.9336 15.2363 13.8848 15.5 13.875C15.7637 13.875 16.0078 13.9238 16.2324 14.0215C16.457 14.1191 16.6572 14.251 16.833 14.417C17.0088 14.583 17.1406 14.7783 17.2285 15.0029C17.3164 15.2275 17.3652 15.4766 17.375 15.75C17.375 16.0039 17.3311 16.2432 17.2432 16.4678C17.1553 16.6924 17.0186 16.8975 16.833 17.083L19.4844 19.7344C20.0117 19.207 20.417 18.6016 20.7002 17.918C20.9834 17.2344 21.125 16.5117 21.125 15.75C21.125 14.9688 20.9785 14.2363 20.6855 13.5527C20.3926 12.8691 19.9922 12.2734 19.4844 11.7656C18.9766 11.2578 18.3809 10.8574 17.6973 10.5645C17.0137 10.2715 16.2812 10.125 15.5 10.125ZM21.6377 20.0273C22.8096 19.5098 23.918 18.8896 24.9629 18.167C26.0078 17.4443 26.9893 16.6387 27.9072 15.75C26.9893 14.8613 26.0078 14.0557 24.9629 13.333C23.918 12.6104 22.8096 11.9902 21.6377 11.4727C22.0771 12.0977 22.4092 12.7764 22.6338 13.5088C22.8584 14.2412 22.9707 14.9883 22.9707 15.75C22.9707 16.5117 22.8584 17.2588 22.6338 17.9912C22.4092 18.7236 22.0771 19.4023 21.6377 20.0273ZM0.5 15.75C0.880859 15.3301 1.27637 14.9199 1.68652 14.5195L9.17188 22.0049C7.49219 21.3311 5.92969 20.457 4.48438 19.3828C3.03906 18.3086 1.71094 17.0977 0.5 15.75Z" fill="#105B60"/>
</g>
<defs>
<clipPath id="clip0_4290_5828">
<rect width="30" height="30" fill="white" transform="translate(0.5 0.75)"/>
</clipPath>
</defs>
</svg>
