<svg width="23" height="23" viewBox="0 0 23 23" fill="none" xmlns="http://www.w3.org/2000/svg">
<path d="M11.6058 13.3613C13.674 13.3613 15.3558 11.6795 15.3558 9.61133C15.3558 7.5432 13.674 5.86133 11.6058 5.86133C9.53771 5.86133 7.85583 7.5432 7.85583 9.61133C7.85583 11.6795 9.53771 13.3613 11.6058 13.3613ZM11.6058 7.73633C12.6399 7.73633 13.4808 8.57727 13.4808 9.61133C13.4808 10.6454 12.6399 11.4863 11.6058 11.4863C10.5718 11.4863 9.73084 10.6454 9.73084 9.61133C9.73084 8.57727 10.5718 7.73633 11.6058 7.73633Z" fill="white"/>
<path d="M11.062 20.687C11.2208 20.8 11.4109 20.8608 11.6058 20.8608C11.8007 20.8608 11.9908 20.8 12.1495 20.687C12.4345 20.4854 19.133 15.6488 19.1058 9.61133C19.1058 5.47602 15.7411 2.11133 11.6058 2.11133C7.47048 2.11133 4.1058 5.47602 4.1058 9.60664C4.07861 15.6488 10.777 20.4854 11.062 20.687ZM11.6058 3.98633C14.708 3.98633 17.2308 6.50914 17.2308 9.61602C17.2505 13.7766 13.117 17.5126 11.6058 18.7379C10.0955 17.5116 5.96111 13.7748 5.9808 9.61133C5.9808 6.50914 8.50361 3.98633 11.6058 3.98633Z" fill="white"/>
</svg>
