<svg width="40" height="40" viewBox="0 0 40 40" fill="none" xmlns="http://www.w3.org/2000/svg">
<path d="M3.4375 16.6797C3.78906 16.3672 4.15365 16.0677 4.53125 15.7812C4.90885 15.4948 5.28646 15.2148 5.66406 14.9414L20.6836 29.9609C20.5664 29.9609 20.4557 29.9674 20.3516 29.9805C20.2474 29.9935 20.1302 30 20 30C19.401 30 18.8086 29.974 18.2227 29.9219C17.6367 29.8698 17.0443 29.7852 16.4453 29.668L3.4375 16.6797ZM40 20C38.3333 21.875 36.4779 23.5482 34.4336 25.0195C32.3893 26.4909 30.1823 27.6628 27.8125 28.5352L34.6289 35.3711L32.8711 37.1289L25.0977 29.3555L23.8672 29.6094L7.8125 13.5547L8.75 13.0078L0.371094 4.62891L2.12891 2.87109L11.1328 11.875C12.5391 11.276 13.9844 10.8138 15.4688 10.4883C16.9531 10.1628 18.4635 10 20 10C21.9531 10 23.8542 10.2539 25.7031 10.7617C27.5521 11.2695 29.3229 11.9661 31.0156 12.8516C32.7083 13.737 34.3099 14.7982 35.8203 16.0352C37.3307 17.2721 38.724 18.5938 40 20ZM20 12.5C18.9974 12.5 18.0404 12.6888 17.1289 13.0664C16.2174 13.444 15.4036 13.9844 14.6875 14.6875L18.2227 18.2227C18.457 17.9883 18.724 17.8125 19.0234 17.6953C19.3229 17.5781 19.6484 17.513 20 17.5C20.3516 17.5 20.6771 17.5651 20.9766 17.6953C21.276 17.8255 21.543 18.0013 21.7773 18.2227C22.0117 18.444 22.1875 18.7044 22.3047 19.0039C22.4219 19.3034 22.487 19.6354 22.5 20C22.5 20.3385 22.4414 20.6576 22.3242 20.957C22.207 21.2565 22.0247 21.5299 21.7773 21.7773L25.3125 25.3125C26.0156 24.6094 26.556 23.8021 26.9336 22.8906C27.3112 21.9792 27.5 21.0156 27.5 20C27.5 18.9583 27.3047 17.9818 26.9141 17.0703C26.5234 16.1589 25.9896 15.3646 25.3125 14.6875C24.6354 14.0104 23.8411 13.4766 22.9297 13.0859C22.0182 12.6953 21.0417 12.5 20 12.5ZM28.1836 25.7031C29.7461 25.013 31.224 24.1862 32.6172 23.2227C34.0104 22.2591 35.319 21.1849 36.543 20C35.319 18.8151 34.0104 17.7409 32.6172 16.7773C31.224 15.8138 29.7461 14.987 28.1836 14.2969C28.7695 15.1302 29.2122 16.0352 29.5117 17.0117C29.8112 17.9883 29.9609 18.9844 29.9609 20C29.9609 21.0156 29.8112 22.0117 29.5117 22.9883C29.2122 23.9648 28.7695 24.8698 28.1836 25.7031ZM0 20C0.507812 19.4401 1.03516 18.8932 1.58203 18.3594L11.5625 28.3398C9.32292 27.4414 7.23958 26.276 5.3125 24.8438C3.38542 23.4115 1.61458 21.7969 0 20Z" fill="#105B60"/>
</svg>
