<svg width="24" height="25" viewBox="0 0 24 25" fill="none" xmlns="http://www.w3.org/2000/svg">
<path d="M21.0002 21.5783L16.6572 17.2353M16.6572 17.2353C17.4001 16.4924 17.9894 15.6105 18.3914 14.6399C18.7935 13.6692 19.0004 12.6289 19.0004 11.5783C19.0004 10.5277 18.7935 9.48741 18.3914 8.51678C17.9894 7.54615 17.4001 6.66422 16.6572 5.92133C15.9143 5.17844 15.0324 4.58915 14.0618 4.1871C13.0911 3.78506 12.0508 3.57812 11.0002 3.57813C9.9496 3.57813 8.90929 3.78506 7.93866 4.1871C6.96803 4.58915 6.08609 5.17844 5.34321 5.92133C3.84288 7.42166 3 9.45654 3 11.5783C3 13.7001 3.84288 15.735 5.34321 17.2353C6.84354 18.7357 8.87842 19.5785 11.0002 19.5785C13.122 19.5785 15.1569 18.7357 16.6572 17.2353Z" stroke="#105B60" stroke-linecap="round" stroke-linejoin="round"/>
</svg>
