<svg width="30" height="26" viewBox="0 0 30 26" fill="none" xmlns="http://www.w3.org/2000/svg">
<g clip-path="url(#clip0_913_269)">
<path d="M19.1512 17.1603L19.7357 16.5481L18.3782 15.1102L17.7962 15.7224L19.1512 17.1603ZM21.6958 16.2913L24.1456 17.6954L25.0622 15.9143L22.6137 14.5116L21.6958 16.2913ZM24.616 20.4847L22.7957 22.3942L24.1507 23.8307L25.971 21.9226L24.616 20.4847ZM21.6856 23.0077C19.8268 23.1915 15.0195 23.028 9.81231 17.5711L8.45603 19.0076C14.1375 24.9632 19.546 25.2551 21.865 25.0267L21.6856 23.0077ZM9.81231 17.5711C4.84995 12.3683 4.02696 7.99383 3.9244 6.09514L2.00407 6.21C2.13226 8.59925 3.1514 13.448 8.45603 19.0076L9.81231 17.5711ZM11.575 9.21954L11.9429 8.83305L10.5892 7.39652L10.2212 7.78167L11.575 9.21954ZM12.2352 3.92075L10.6199 1.64502L9.08033 2.86127L10.6956 5.13565L12.2352 3.92075ZM5.18326 1.14906L3.17063 3.25722L4.52691 4.6951L6.53826 2.58694L5.18326 1.14906ZM10.8981 8.5006C10.2187 7.78167 10.2187 7.78167 10.2187 7.78437H10.2161L10.2123 7.78977C10.1514 7.85452 10.0968 7.92561 10.0495 8.00194C9.98024 8.11005 9.90461 8.25195 9.84051 8.43168C9.68447 8.89565 9.64559 9.39442 9.7277 9.87902C9.89948 11.048 10.6635 12.5926 12.6197 14.644L13.976 13.2061C12.1441 11.2872 11.7083 10.1196 11.6275 9.5682C11.5891 9.30603 11.6288 9.1763 11.6403 9.14657C11.648 9.12855 11.648 9.12584 11.6403 9.13846C11.6289 9.15711 11.6161 9.17473 11.6019 9.19116L11.5891 9.20468L11.5762 9.21684L10.8981 8.5006ZM12.6197 14.644C14.5772 16.6954 16.0502 17.4954 17.1603 17.6738C17.7282 17.7657 18.1859 17.6927 18.5333 17.5562C18.7279 17.4812 18.9097 17.3735 19.0717 17.2373L19.1358 17.1765L19.1448 17.1684L19.1486 17.1643L19.1499 17.1616C19.1499 17.1616 19.1512 17.1603 18.473 16.4414C17.7936 15.7224 17.7975 15.7211 17.7975 15.7211L17.8 15.7184L17.8026 15.7157L17.8103 15.7089L17.8231 15.6954L17.8718 15.6548C17.8838 15.6467 17.8808 15.6476 17.8628 15.6575C17.8308 15.6697 17.7052 15.7116 17.4526 15.6711C16.9219 15.5846 15.8066 15.1251 13.976 13.2061L12.6197 14.644ZM10.6199 1.64367C9.31236 -0.194218 6.74337 -0.486117 5.18326 1.14906L6.53826 2.58694C7.22024 1.87205 8.43039 1.94638 9.08033 2.86127L10.6199 1.64367ZM3.92568 6.09649C3.90004 5.62891 4.10387 5.13971 4.52691 4.69645L3.16934 3.25857C2.48095 3.98022 1.93869 5.00186 2.00407 6.21L3.92568 6.09649ZM22.7957 22.3942C22.4445 22.7645 22.065 22.9726 21.6868 23.0091L21.865 25.0267C22.8072 24.9335 23.5777 24.4334 24.152 23.8321L22.7957 22.3942ZM11.9429 8.83305C13.2056 7.51004 13.2992 5.41944 12.2364 3.92211L10.6968 5.137C11.2135 5.8654 11.1365 6.82083 10.5879 7.39787L11.9429 8.83305ZM24.1469 17.6968C25.1942 18.2968 25.357 19.7104 24.6173 20.486L25.9736 21.9226C27.6914 20.1212 27.162 17.117 25.0634 15.9157L24.1469 17.6968ZM19.7357 16.5495C20.228 16.0332 21.0202 15.9062 21.6971 16.2927L22.615 14.5129C21.2253 13.7156 19.5024 13.9359 18.3795 15.1116L19.7357 16.5495Z" fill="white"/>
</g>
<defs>
<clipPath id="clip0_913_269">
<rect width="29" height="25" fill="white" transform="translate(0.5 0.078125)"/>
</clipPath>
</defs>
</svg>
